# xmcd
#
# Track frame offsets:
#	150
#	23682
#	36127
#	50950
#	63875
#	78532
#	89182
#	102405
#	112542
#	123305
#	135097
#	145807
#	160240
#	173892
#	184870
#	196490
#
# Disc length: 2756 seconds
#
# Revision: 1
# Processed by: cddbd v1.5.2PL0 Copyright (c) Steve Scherf et al.
# Submitted via: EZCDAudioConverter 1.2.3.1
#
DISCID=d70ac210
DTITLE=Waylon Jennings - 16 Top Tracks
DYEAR=1980
DGENRE=Country
TTITLE0=MacArthur Park
TTITLE1=Cindy Oh Cindy
TTITLE2=Games People Play
TTITLE3=Today I Started Loving Her Again
TTITLE4=Folsom Prison Blues
TTITLE5=You've Got To Hide Your Love Away
TTITLE6=Love Of The Common People
TTITLE7=Ruby, Don't Take Your Love To Town
TTITLE8=Only Daddy That'll Walk The Line
TTITLE9=Such A Waste Of Love
TTITLE10=Kentucky Woman
TTITLE11=No Regrets
TTITLE12=Honky Tonk Woman
TTITLE13=If I Were A Carpenter
TTITLE14=Lonely Weekends
TTITLE15=Just To Satisfy You
EXTD=
EXTT0=
EXTT1=
EXTT2=
EXTT3=
EXTT4=
EXTT5=
EXTT6=
EXTT7=
EXTT8=
EXTT9=
EXTT10=
EXTT11=
EXTT12=
EXTT13=
EXTT14=
EXTT15=
PLAYORDER=
